PathFileType  4	(X/Y/Z) C:\Users\antoi\Documents\MyRepositories\mobilecap\ResultsAnalysis
DataRate	CameraRate	NumFrames	NumMarkers	Units	OrigDataRate	OrigDataStartFrame	OrigNumFrames
100.0	100.0	6	51	mm	100.0	99	197
Frame#	Time	r_knee			r_shank_antsup			r_ankle			r_calc			r_5meta			r_toe			L_knee			L_shank_antsup			L_ankle			L_calc			L_5meta			L_toe			r_sh2			r_sh3			r_sh4			L_sh2			L_sh3			r_thigh1			r_thigh2			r_thigh3			r_thigh4			r_thigh5			L_thigh1			L_thigh2			L_thigh3			L_thigh4			r.ASIS			r.PSIS			L.ASIS			L.PSIS			C7			R_Shoulder			L_Shoulder			R_Sternum			L_Sternum			R_humerus			R_elbow_med			R_elbow_lat			R_forearm			R_wrist_radius			R_wrist_ulna			L_humerus			L_elbow_med			L_elbow_lat			L_forearm			L_wrist_radius			L_wrist_ulna			R_HJC			L_HJC			R_HJC_reg			L_HJC_reg			
		X1	Y1	Z1	X2	Y2	Z2	X3	Y3	Z3	X4	Y4	Z4	X5	Y5	Z5	X6	Y6	Z6	X7	Y7	Z7	X8	Y8	Z8	X9	Y9	Z9	X10	Y10	Z10	X11	Y11	Z11	X12	Y12	Z12	X13	Y13	Z13	X14	Y14	Z14	X15	Y15	Z15	X16	Y16	Z16	X17	Y17	Z17	X18	Y18	Z18	X19	Y19	Z19	X20	Y20	Z20	X21	Y21	Z21	X22	Y22	Z22	X23	Y23	Z23	X24	Y24	Z24	X25	Y25	Z25	X26	Y26	Z26	X27	Y27	Z27	X28	Y28	Z28	X29	Y29	Z29	X30	Y30	Z30	X31	Y31	Z31	X32	Y32	Z32	X33	Y33	Z33	X34	Y34	Z34	X35	Y35	Z35	X36	Y36	Z36	X37	Y37	Z37	X38	Y38	Z38	X39	Y39	Z39	X40	Y40	Z40	X41	Y41	Z41	X42	Y42	Z42	X43	Y43	Z43	X44	Y44	Z44	X45	Y45	Z45	X46	Y46	Z46	X47	Y47	Z47	X48	Y48	Z48	X49	Y49	Z49	X50	Y50	Z50	X51	Y51	Z51	

99	0.98000000	312.99385	474.66711	-118.78391	329.42273	403.08164	-128.23377	168.64834	109.36730	-159.49502	107.28681	89.57333	-199.75008	264.62516	42.81587	-132.98098	310.59753	53.57606	-187.10711	636.03307	468.26636	-365.85694	699.77573	414.57195	-353.76690	787.31125	113.11847	-359.38593	757.30090	49.50527	-317.34070	904.53228	123.62256	-379.66686	931.90523	170.24231	-325.06127	281.13788	301.86989	-124.61596	266.13772	433.40089	-98.02413	206.20439	332.83983	-100.08206	622.74736	394.47569	-398.65195	670.94871	281.53906	-406.23742	428.56198	696.63800	-60.06280	399.35438	590.15359	-84.01885	335.24118	586.79772	-88.62720	319.09952	724.86992	-72.09627	291.49657	620.04808	-110.60901	572.29921	734.25813	-412.07629	625.97778	608.89211	-384.91291	472.16899	689.02974	-427.36518	520.27035	567.67119	-381.29728	519.76305	902.16639	-112.11194	326.57032	939.12650	-231.32987	557.96748	897.53842	-331.42361	344.51779	932.55539	-310.89129	427.02535	1373.53689	-250.23990	465.58745	1340.53618	-100.24385	483.33569	1340.08238	-384.74600	548.35242	1305.97238	-213.79013	552.28795	1305.38333	-254.19073	489.38297	1228.10190	-39.43484	417.68045	1014.59283	-40.10362	455.30387	1029.81458	11.19770	534.30869	975.11109	12.92455	611.41401	852.85097	-2.34655	585.86200	839.65392	26.39363	481.53360	1239.92359	-458.54778	403.47208	1026.51500	-452.55504	430.27048	1047.36439	-509.46612	487.08523	959.04364	-533.15343	523.69014	835.81366	-536.95420	489.92524	830.39717	-558.95310	433.88731	818.66356	-135.56328	475.57693	814.39634	-338.80006	446.98986	842.23275	-154.65615	479.22226	830.43182	-297.54981	
100	0.99000000	320.21804	474.88391	-118.98612	335.74233	402.96604	-128.12035	170.28268	111.54848	-159.13610	108.81805	92.74229	-199.63412	264.94320	42.97523	-132.78949	310.91679	53.34784	-186.97583	647.50940	466.99847	-364.22181	709.99969	411.02926	-352.09294	790.05384	108.17902	-356.82395	758.60677	45.57846	-314.95055	907.22870	116.74357	-377.72372	935.85725	162.68087	-323.04076	285.83678	302.58485	-124.40925	272.68910	434.36583	-98.10798	211.32960	334.80368	-100.19954	632.49983	392.69383	-396.84746	677.71242	278.59932	-404.06560	437.35830	695.93922	-60.26163	407.49175	589.72771	-84.12666	343.18136	586.72523	-88.96128	328.48679	724.86092	-73.00533	300.25168	620.10687	-111.47738	583.64813	733.08521	-412.20012	637.60765	608.02452	-384.18367	483.62682	687.58248	-427.05506	532.03765	566.32842	-380.48483	530.59582	900.81887	-112.24649	337.93454	938.11465	-231.97937	569.38216	896.43929	-331.44774	356.05018	931.58020	-311.42993	439.12953	1371.96611	-253.86850	477.43627	1340.98009	-103.15346	495.46541	1336.97752	-387.79723	559.88454	1304.70638	-216.25559	564.13301	1303.78608	-256.68012	499.21416	1228.51278	-41.11589	425.03134	1015.66211	-41.63650	462.07125	1030.80873	10.14689	540.51984	975.33714	12.98104	616.58594	852.37116	-1.14172	590.72502	839.45792	27.37469	494.10858	1236.19703	-460.65174	416.76225	1022.63677	-453.55011	443.76609	1043.15143	-510.41538	500.77946	954.88431	-533.18692	537.78908	831.90202	-536.36563	503.73141	826.37675	-558.41572	444.76487	817.42556	-136.03040	487.02012	813.36255	-339.15389	457.90045	841.09575	-154.99991	490.46189	829.35088	-297.81270	
101	1.00000000	327.81911	474.97603	-119.31226	342.38387	402.66509	-128.07590	172.30990	113.73803	-158.82187	110.56016	96.21241	-199.59480	265.42596	43.02324	-132.64297	311.16405	52.85090	-186.92093	658.87626	465.30345	-362.61772	720.12771	407.24983	-350.17113	792.91100	103.39641	-354.39541	759.47390	42.24723	-313.09796	910.17768	109.64882	-375.14816	939.78994	154.67834	-320.20318	290.80382	303.17406	-124.27632	279.68430	435.24983	-98.28432	216.86736	336.72840	-100.40746	642.48776	390.83054	-395.23835	684.77415	275.63299	-402.08237	446.42718	695.20127	-60.46755	416.00027	589.15446	-84.25969	351.23972	586.48872	-89.20984	338.12664	724.87367	-73.97233	309.24571	620.13840	-112.45287	595.06753	731.52958	-412.53350	649.06903	606.66078	-383.65700	494.96783	685.98397	-426.61100	543.46052	564.91297	-379.66552	541.87384	899.31625	-112.41664	349.54933	937.17112	-232.51193	581.06462	895.16165	-331.54379	367.80870	930.65818	-311.86020	451.38624	1370.35381	-257.77822	489.77178	1341.51627	-106.30730	507.82563	1333.57897	-391.08032	571.66888	1303.30404	-219.02148	576.17329	1302.05619	-259.43885	509.45268	1229.02849	-43.05815	432.32968	1017.14776	-43.35870	468.96610	1032.04327	8.93166	546.69349	975.68050	12.95084	621.44267	851.78737	0.08161	595.29103	839.28777	28.33618	506.90070	1232.14539	-462.86734	430.14888	1018.55766	-454.54031	457.27635	1038.71855	-511.42328	514.65614	950.40742	-533.21579	552.10126	827.78003	-535.82913	517.81154	822.03190	-557.75580	455.93504	816.12946	-136.47483	498.57993	812.24606	-339.51899	469.10543	839.87790	-155.38167	501.95211	828.16195	-298.12564	
102	1.01000000	335.81503	474.97606	-119.73856	349.35514	402.23563	-128.10000	174.72781	115.96987	-158.56432	112.54052	100.01380	-199.65853	266.06808	42.97766	-132.55809	311.38384	52.10092	-186.92848	669.80929	463.15362	-361.12973	730.04904	403.45946	-348.10725	796.38834	99.03108	-352.15804	760.51050	39.80961	-311.73578	913.82310	102.60622	-372.02121	944.14697	146.56545	-316.68191	296.03020	303.68059	-124.22212	287.14897	436.10698	-98.57241	222.78667	338.67344	-100.72078	652.59081	388.85425	-393.83700	692.32393	272.71475	-400.29224	455.81885	694.45278	-60.68711	424.88211	588.47646	-84.40685	359.45326	586.12948	-89.37883	348.02572	724.93513	-74.98856	318.49834	620.18412	-113.52521	606.54276	729.58309	-413.03243	660.25926	604.75251	-383.33702	506.17351	684.29770	-426.08810	554.38581	563.44295	-378.86900	553.55227	897.69699	-112.60154	361.39394	936.30830	-232.99934	593.00329	893.71665	-331.70477	379.79751	929.78137	-312.25921	463.77218	1368.72487	-261.97915	502.50408	1342.16935	-109.71659	520.42614	1329.87294	-394.59486	583.72337	1301.83120	-222.07817	588.43212	1300.24049	-262.45590	520.08074	1229.70414	-45.28225	439.62774	1019.08039	-45.27646	476.01742	1033.57518	7.52043	552.84601	976.18988	12.79612	625.99063	851.16040	1.29959	599.56326	839.20381	29.26688	519.90034	1227.75257	-465.19671	443.59300	1014.25367	-455.54846	470.81143	1034.03130	-512.48479	528.69003	945.59419	-533.25355	566.60956	823.37223	-535.28235	532.14630	817.32844	-556.95461	467.35225	814.80853	-136.90993	510.27260	811.04651	-339.89683	480.55596	838.61589	-155.79262	513.68644	826.86600	-298.48065	
103	1.02000000	344.20156	474.94911	-120.21209	356.65855	401.77403	-128.15775	177.50556	118.29642	-158.34801	114.79660	104.16781	-199.82369	266.84179	42.87036	-132.53753	311.66334	51.17610	-186.95574	680.08758	460.65616	-359.84827	739.74846	399.89657	-346.01094	800.68840	95.22379	-350.17830	762.09849	38.34702	-310.77762	918.29565	95.74444	-368.53774	949.12920	138.51693	-312.72924	301.51321	304.19140	-124.22156	295.06980	437.01006	-98.96351	229.04242	340.72295	-101.13520	662.74792	386.84109	-392.64949	700.46175	269.96697	-398.71497	465.59474	693.72577	-60.93440	434.12736	587.76388	-84.55352	367.92233	585.73586	-89.50906	358.20281	725.06886	-76.03979	328.04094	620.29588	-114.66516	618.04005	727.33127	-413.64891	671.08893	602.35527	-383.23440	517.23219	682.63927	-425.55168	564.72298	561.97913	-378.10358	565.56598	896.03514	-112.78258	373.44347	935.53921	-233.50255	605.16072	892.16806	-331.91837	391.99853	928.96516	-312.69847	476.27279	1367.11128	-266.45484	515.51483	1342.98577	-113.38331	533.25250	1325.88522	-398.31953	596.04649	1300.38302	-225.39328	600.92232	1298.41021	-265.70308	531.03611	1230.61341	-47.77514	446.98129	1021.47441	-47.38805	483.22859	1035.46555	5.89215	558.97525	976.92414	12.48517	630.24228	850.58966	2.49146	603.53517	839.28707	30.16408	533.07553	1223.04489	-467.63138	457.07187	1009.71772	-456.58952	484.38912	1029.08410	-513.57903	542.84533	940.47048	-533.30576	581.28354	818.64302	-534.64339	546.69945	812.27950	-556.00219	478.97100	813.51601	-137.35063	522.11090	809.80365	-340.29101	492.21561	837.35348	-156.21421	525.63732	825.51218	-298.86514	
104	1.03000000	352.95677	474.97759	-120.65787	364.29777	401.39265	-128.18228	180.59737	120.77531	-158.12645	117.37704	108.68148	-200.05232	267.70558	42.74001	-132.56638	312.10092	50.19358	-186.94690	689.68605	458.05355	-358.85253	749.30554	396.75781	-343.99081	805.67005	92.00731	-348.52315	764.33523	37.73995	-310.11499	923.39960	89.09472	-364.99227	954.65997	130.59845	-308.69320	307.26114	304.81732	-124.21615	303.40842	438.03283	-99.41911	235.59309	342.96569	-101.62222	672.96007	384.95945	-391.68780	709.14720	267.53905	-397.38522	475.81534	693.04556	-61.22557	443.72304	587.09822	-84.67923	376.77824	585.41689	-89.65557	368.68475	725.28939	-77.10462	337.91446	620.51788	-115.83018	629.51154	724.95638	-414.34401	681.51275	599.64319	-383.37106	528.14285	681.16095	-425.06522	574.47346	560.63666	-377.37618	577.83876	894.43062	-112.94418	385.66914	934.87904	-234.05644	617.48042	890.62725	-332.16736	404.36848	928.24981	-313.22563	488.88273	1365.54887	-271.16554	528.68551	1344.02686	-117.30336	546.26419	1321.68007	-402.21450	608.61639	1299.06484	-228.92076	613.63202	1296.64602	-269.14364	542.22592	1231.83770	-50.49263	454.43838	1024.32938	-49.68749	490.58391	1037.77258	4.04147	565.07472	977.95043	11.99779	634.21244	850.19651	3.64175	607.19606	839.62899	31.03056	546.38204	1218.09152	-470.15046	470.58481	1004.96726	-457.65747	498.02920	1023.90969	-514.67374	557.08281	935.10784	-533.36548	596.08537	813.62354	-533.84363	561.42507	806.94321	-554.89660	490.75250	812.31865	-137.80830	534.09945	808.59618	-340.70483	504.06631	836.13810	-156.61733	537.75770	824.19404	-299.26154	
